<svg id="Layer_1" data-name="Layer 1" xmlns="http://www.w3.org/2000/svg" viewBox="0 0 278.87 64.74"><defs><style>.cls-1{fill:#f50;}</style></defs><title>BeyondTrust_Horiz_hex-Orange</title><g id="BeyondTrust"><path class="cls-1" d="M278.76,48.26A6.15,6.15,0,0,1,275,49.8c-1.92,0-2.9-1-2.9-3V39.42h6.66V35H272.1V29.5l-5.6,1.39V35h-2.93v4.44h2.93v7.9c0,4.78,2.29,7.3,6.54,7.3a9.69,9.69,0,0,0,5-1.32l.87-5Z"/><path class="cls-1" d="M256.76,42.4a14.78,14.78,0,0,1-3.31-1.09,1.23,1.23,0,0,1-.79-1.13c0-.86,1-1.43,2.6-1.43a13.54,13.54,0,0,1,6.84,2.33l.11,0V36.23a14.27,14.27,0,0,0-6.73-1.65c-4.93,0-8.08,2.37-8.08,6,0,3,1.69,4.63,6.69,5.94a18.72,18.72,0,0,1,3.39,1.13,1.35,1.35,0,0,1,.83,1.24c0,.9-1.05,1.54-2.67,1.54a15.71,15.71,0,0,1-8.57-3.12l-.11.07.75,5.15a14.15,14.15,0,0,0,7.6,2.11,9.91,9.91,0,0,0,6-1.69,5.14,5.14,0,0,0,2.26-4.36,5,5,0,0,0-1.47-3.8c-1-.94-2.74-1.73-5.34-2.37"/><path class="cls-1" d="M239.76,47.77c-1.62,1.35-2.75,1.88-4.14,1.88-2.07,0-3.2-1.32-3.2-3.61V35h-5.72V47.21c0,4.55,2.52,7.41,6.47,7.41,2.71,0,4.66-1.17,6.73-3.87V54.2h5.53V35h-5.68Z"/><path class="cls-1" d="M223.7,34.69c-2.07,0-3.65,1.28-6.32,5v-5l-5.57.71V54.2h5.72V43c2.44-1.66,4.33-2.33,6.39-2.33a5.36,5.36,0,0,1,1.36.11l-.34-5.9a5.5,5.5,0,0,0-1.24-.15"/><polygon class="cls-1" points="212.57 27.88 187.71 27.88 187.71 33.33 197.11 33.33 197.11 54.2 203.16 54.2 203.16 33.33 212.57 33.33 212.57 27.88"/><path class="cls-1" d="M180.49,48.34a7.13,7.13,0,0,1-4.17,1.47c-2.75,0-4.7-2.07-4.7-5.11a4.92,4.92,0,0,1,5-5.27,7.3,7.3,0,0,1,3.84,1.05Zm0-11.77a8.28,8.28,0,0,0-5.12-1.88,8.55,8.55,0,0,0-6.58,2.93A10.58,10.58,0,0,0,166.08,45a9.78,9.78,0,0,0,2.41,6.81,7.4,7.4,0,0,0,5.87,2.75,7.94,7.94,0,0,0,6.24-3.08V54.2h5.57V25.7l-5.68,1.5Z"/><path class="cls-1" d="M157.85,34.54c-2.6,0-4.63,1.17-6.69,3.87V34.72l-5.57.71V54.2h5.72V41.38c1.62-1.35,2.71-1.84,4.1-1.84,2.07,0,3.23,1.32,3.23,3.57V54.2h5.68V41.94c0-4.55-2.52-7.41-6.47-7.41"/><path class="cls-1" d="M133.44,49.88a5,5,0,0,1-4.85-5.26c0-3,2-5.3,4.89-5.3a4.89,4.89,0,0,1,4.85,5.23c0,3-2.07,5.34-4.89,5.34m0-15.42A10.21,10.21,0,0,0,126,37.39a9.82,9.82,0,0,0-3,7.22A9.67,9.67,0,0,0,126,51.8a10,10,0,0,0,7.45,2.93,10.09,10.09,0,0,0,7.45-3,10.31,10.31,0,0,0,.07-14.4,10.24,10.24,0,0,0-7.48-2.9"/><path class="cls-1" d="M118.13,35l-4.33,12.07L109.07,35H102.9l8,18.43c-.87,2.07-2.11,3-4.17,3a6.71,6.71,0,0,1-3.2-.86l-.07.07,1.09,5.19a8.11,8.11,0,0,0,3.31.64c3.95,0,6.77-2.26,8.61-7L124.19,35Z"/><path class="cls-1" d="M94.59,38.56c2.22,0,3.68,1.65,3.95,4.33H90.41c.3-2.6,1.92-4.33,4.17-4.33m1.65,11.58c-3.12,0-5.19-1.47-5.79-4h13.27c0-.64.11-1.32.11-1.62a10.69,10.69,0,0,0-2.44-7.3,8.51,8.51,0,0,0-6.69-2.75,9.21,9.21,0,0,0-7,2.9A10.12,10.12,0,0,0,85,44.54a9.8,9.8,0,0,0,2.82,7.33,10,10,0,0,0,7.45,2.74,14.21,14.21,0,0,0,6.62-1.5l1.54-4.78-.11-.08a15.41,15.41,0,0,1-7,1.88"/><path class="cls-1" d="M73.34,49.54H69.77V43h3.42c2.9,0,4.51,1.17,4.51,3.31S76,49.54,73.34,49.54m-3.57-17H73c2.37,0,3.8,1.09,3.8,3s-1.58,3.23-4,3.23h-3Zm9.14,7.94a6.24,6.24,0,0,0,3.72-5.64c0-4.36-3.31-7-8.88-7H64V54.2h9.78A11.47,11.47,0,0,0,81,52.14a6.58,6.58,0,0,0,2.67-5.49c0-2.86-1.62-5-4.74-6.17"/></g><path class="cls-1" d="M47.92,26.54l-5.74-5.74a.15.15,0,0,0-.17,0,.16.16,0,0,0-.09.14v40.3a.16.16,0,0,0,.09.14h.06a.16.16,0,0,0,.11,0l5.74-5.74a1.58,1.58,0,0,0,.39-1V27.5a1.61,1.61,0,0,0-.39-1"/><path class="cls-1" d="M37.6,17.41H17.26a.32.32,0,0,1-.31-.31V.16A.16.16,0,0,0,16.85,0a.15.15,0,0,0-.17,0L10.94,5.79a1.62,1.62,0,0,0-.4,1V23.65a.16.16,0,0,0,.16.16H31a.32.32,0,0,1,.31.31v3a.8.8,0,0,1-.8.8H10.7a.16.16,0,0,0-.11,0,.16.16,0,0,0,0,.11V49.69a4.5,4.5,0,0,0,4.5,4.5H30.54a.8.8,0,0,1,.8.8v3a.32.32,0,0,1-.31.31H15A8.66,8.66,0,0,1,6.4,49.69v-39a.16.16,0,0,0-.09-.14.15.15,0,0,0-.17,0L.39,16.33a1.63,1.63,0,0,0-.39,1V51.56A13.19,13.19,0,0,0,13.17,64.74H37.6a.16.16,0,0,0,.16-.16l0-47A.18.18,0,0,0,37.6,17.41ZM31.34,47a.8.8,0,0,1-.8.8H17.78A.8.8,0,0,1,17,47V35.16a.8.8,0,0,1,.8-.8H30.54a.8.8,0,0,1,.8.8Z"/></svg>